<svg width="1600" height="1200" viewBox="0 0 1600 1200" fill="none" xmlns="http://www.w3.org/2000/svg">
  <rect width="1600" height="1200" fill="#190A0E"/>
  <g opacity="0.9">
    <circle cx="1280" cy="240" r="280" fill="url(#paint0_radial_1_2)"/>
    <circle cx="220" cy="940" r="320" fill="url(#paint1_radial_1_2)"/>
    <circle cx="860" cy="520" r="360" fill="url(#paint2_radial_1_2)"/>
  </g>
  <g opacity="0.18">
    <path d="M0 210H1600" stroke="#F7D5D9"/>
    <path d="M0 430H1600" stroke="#F7D5D9"/>
    <path d="M0 650H1600" stroke="#F7D5D9"/>
    <path d="M0 870H1600" stroke="#F7D5D9"/>
    <path d="M0 1090H1600" stroke="#F7D5D9"/>
    <path d="M180 0V1200" stroke="#F7D5D9"/>
    <path d="M420 0V1200" stroke="#F7D5D9"/>
    <path d="M660 0V1200" stroke="#F7D5D9"/>
    <path d="M900 0V1200" stroke="#F7D5D9"/>
    <path d="M1140 0V1200" stroke="#F7D5D9"/>
    <path d="M1380 0V1200" stroke="#F7D5D9"/>
  </g>
  <rect x="920" y="186" width="468" height="268" rx="36" fill="#5A111F" fill-opacity="0.66" stroke="#FFD3A6" stroke-opacity="0.2"/>
  <rect x="960" y="234" width="190" height="168" rx="24" fill="#7C1830" fill-opacity="0.85" stroke="#F9D9DD" stroke-opacity="0.16"/>
  <rect x="1182" y="234" width="166" height="74" rx="20" fill="#8D1B36" fill-opacity="0.72" stroke="#F9D9DD" stroke-opacity="0.14"/>
  <rect x="1182" y="328" width="166" height="74" rx="20" fill="#3A0E16" fill-opacity="0.88" stroke="#F9D9DD" stroke-opacity="0.14"/>
  <rect x="1014" y="604" width="416" height="228" rx="32" fill="#240C11" fill-opacity="0.92" stroke="#FFD3A6" stroke-opacity="0.18"/>
  <path d="M1048 660H1390" stroke="#FFD3A6" stroke-opacity="0.22"/>
  <path d="M1048 716H1390" stroke="#FFD3A6" stroke-opacity="0.14"/>
  <path d="M1048 772H1390" stroke="#FFD3A6" stroke-opacity="0.14"/>
  <circle cx="294" cy="292" r="118" stroke="#F7D5D9" stroke-opacity="0.18"/>
  <circle cx="316" cy="314" r="68" fill="#B91C3C" fill-opacity="0.22"/>
  <path d="M250 840C388 756 526 756 664 840" stroke="#FFD3A6" stroke-opacity="0.24" stroke-width="2"/>
  <defs>
    <radialGradient id="paint0_radial_1_2" cx="0" cy="0" r="1" gradientUnits="userSpaceOnUse" gradientTransform="translate(1280 240) rotate(90) scale(280)">
      <stop stop-color="#E11D48"/>
      <stop offset="1" stop-color="#190A0E" stop-opacity="0"/>
    </radialGradient>
    <radialGradient id="paint1_radial_1_2" cx="0" cy="0" r="1" gradientUnits="userSpaceOnUse" gradientTransform="translate(220 940) rotate(90) scale(320)">
      <stop stop-color="#FB923C"/>
      <stop offset="1" stop-color="#190A0E" stop-opacity="0"/>
    </radialGradient>
    <radialGradient id="paint2_radial_1_2" cx="0" cy="0" r="1" gradientUnits="userSpaceOnUse" gradientTransform="translate(860 520) rotate(90) scale(360)">
      <stop stop-color="#991B2E"/>
      <stop offset="1" stop-color="#190A0E" stop-opacity="0"/>
    </radialGradient>
  </defs>
</svg>
